<svg xmlns="http://www.w3.org/2000/svg" width="62" height="62" viewBox="0 0 62 62">
    <defs>
        <filter id="a" width="111.5%" height="111.2%" x="-5.8%" y="-5.6%" filterUnits="objectBoundingBox">
            <feOffset dy="4" in="SourceAlpha" result="shadowOffsetOuter1"/>
            <feGaussianBlur in="shadowOffsetOuter1" result="shadowBlurOuter1" stdDeviation="4"/>
            <feColorMatrix in="shadowBlurOuter1" result="shadowMatrixOuter1" values="0 0 0 0 0 0 0 0 0 0 0 0 0 0 0 0 0 0 0.2 0"/>
            <feMerge>
                <feMergeNode in="shadowMatrixOuter1"/>
                <feMergeNode in="SourceGraphic"/>
            </feMerge>
        </filter>
    </defs>
    <g fill="none" fill-rule="nonzero" filter="url(#a)" transform="translate(8 4)">
        <circle cx="23" cy="23" r="23" fill="#EEE"/>
        <path fill="#AAA" d="M17 21a2 2 0 1 1 0-4 2 2 0 0 1 0 4zm12 0a2 2 0 1 1 0-4 2 2 0 0 1 0 4zM16.5 27a.5.5 0 1 1 0-1h13a.5.5 0 1 1 0 1h.5c-1.17 4-3.503 6-7 6s-5.83-2-7-6h.5z"/>
    </g>
</svg>
