<svg xmlns="http://www.w3.org/2000/svg" width="230" height="20" viewBox="0 0 230 20">
    <g fill="none" fill-rule="evenodd">
        <g fill="#FFF">
            <path d="M12 10v7.271a.729.729 0 0 1-.729.729H4.729A.729.729 0 0 1 4 17.271V10H.729A.729.729 0 0 1 0 9.271V2.729C0 2.326.326 2 .729 2h14.542c.403 0 .729.326.729.729v6.542a.729.729 0 0 1-.729.729H12zM83 10v7.271a.729.729 0 0 1-.729.729h-6.542a.729.729 0 0 1-.729-.729V10h-3.271A.729.729 0 0 1 71 9.271V2.729c0-.403.326-.729.729-.729h14.542c.403 0 .729.326.729.729v6.542a.729.729 0 0 1-.729.729H83zM27 19a9 9 0 1 0 0-18 9 9 0 0 0 0 18zM45.566 2.238l7.816 14.69A.729.729 0 0 1 52.74 18H36.325a.729.729 0 0 1-.63-1.097l8.598-14.69a.729.729 0 0 1 1.273.025zM66.674 6.989A5.779 5.779 0 0 1 64.222 18h-8.656a.875.875 0 0 1-.746-1.333l2.665-4.33A5.335 5.335 0 0 1 59.333 2h9.032a.875.875 0 0 1 .728 1.36L66.674 6.99z"/>
        </g>
        <path fill="#FFF" d="M221.742 18h-29.484c-4.56 0-8.258-3.582-8.258-8s3.697-8 8.258-8h29.484c4.56 0 8.258 3.582 8.258 8s-3.697 8-8.258 8z"/>
        <path fill="#6A3ECF" d="M196.945 12.02c.533-.533.803-1.203.803-2 0-.805-.27-1.486-.803-2.02a2.646 2.646 0 0 0-1.95-.806c-.761 0-1.419.272-1.95.817-.532.533-.793 1.204-.793 2.01 0 .785.26 1.456.782 1.99.532.534 1.179.806 1.961.806.772 0 1.418-.262 1.95-.796m-4.808.838c-.761-.765-1.137-1.707-1.137-2.817 0-1.12.386-2.074 1.168-2.859.782-.785 1.721-1.183 2.827-1.183 1.116 0 2.055.387 2.837 1.173.782.785 1.168 1.727 1.168 2.837s-.386 2.053-1.168 2.828c-.782.775-1.732 1.162-2.869 1.162-1.116 0-2.064-.377-2.826-1.141M200 13.997V8.152h1.171v.824c.347-.607 1.02-.976 1.855-.976.64 0 1.181.206 1.626.63.445.422.672 1.019.672 1.81v3.557h-1.204v-3.22c0-1.074-.564-1.67-1.398-1.67-.9 0-1.53.694-1.53 1.691v3.2H200zM206 14h1.193V6H206zM208.006 14h1.193V8.375h-1.193V14zm-.206-7.208c0-.445.358-.792.824-.792.445 0 .792.347.792.792 0 .466-.347.813-.792.813a.801.801 0 0 1-.824-.813zM210 13.997V8.152h1.171v.824c.347-.607 1.02-.976 1.855-.976.64 0 1.181.206 1.626.63.445.422.673 1.019.673 1.81v3.557h-1.205v-3.22c0-1.074-.564-1.67-1.398-1.67-.9 0-1.53.694-1.53 1.691v3.2H210zM220.405 10.187c-.097-.922-.902-1.187-1.423-1.187-.52 0-1.412.096-1.746 1.187h3.17zm-3.169 1.007c.174.91.813 1.86 1.941 1.86.662 0 1.464-.25 1.985-.63l.499.879c-.596.444-1.54.814-2.527.814-2.19 0-3.134-1.53-3.134-3.07 0-.878.271-1.604.824-2.179.553-.575 1.28-.868 2.158-.868.835 0 1.53.26 2.06.792.532.532.803.916.803 1.827 0 .162-.01.357-.044.575h-4.565z"/>
        <g fill="#FFF">
            <path d="M94.324 15.776C92.781 14.276 92 12.374 92 10.029c0-2.367.781-4.311 2.366-5.832 1.586-1.543 3.487-2.304 5.727-2.304 1.416 0 2.705.317 3.909.93 1.204.613 2.134 1.416 2.81 2.43l-1.733 1.563c-1.289-1.71-2.916-2.556-4.923-2.556-1.585 0-2.916.55-4.015 1.648-1.078 1.099-1.627 2.472-1.627 4.12 0 1.649.528 3 1.606 4.058 1.078 1.056 2.41 1.584 4.015 1.584 2.05 0 3.74-.845 5.029-2.535l1.733 1.521c-1.458 2.008-3.994 3.36-6.868 3.36-2.26 0-4.162-.74-5.705-2.24M116.19 9.395c-.695-.761-1.559-1.141-2.59-1.141s-1.895.38-2.61 1.14c-.695.74-1.053 1.649-1.053 2.684 0 1.057.358 1.965 1.052 2.705.716.74 1.58 1.12 2.611 1.12 1.031 0 1.895-.38 2.59-1.12.715-.74 1.073-1.648 1.073-2.705 0-1.035-.358-1.944-1.073-2.683m-6.905-1.543c1.136-1.162 2.568-1.754 4.315-1.754 1.748 0 3.18.592 4.295 1.754 1.137 1.162 1.705 2.557 1.705 4.226 0 1.69-.568 3.106-1.705 4.268-1.116 1.163-2.547 1.733-4.295 1.733-1.747 0-3.179-.57-4.315-1.733-1.117-1.162-1.685-2.577-1.685-4.268 0-1.67.568-3.064 1.685-4.226M121 17.783V6.394h2.282V8c.676-1.183 1.986-1.902 3.614-1.902 1.246 0 2.303.402 3.17 1.226.866.824 1.31 1.986 1.31 3.529v6.93h-2.346v-6.275c0-2.092-1.099-3.255-2.726-3.255-1.753 0-2.98 1.353-2.98 3.297v6.233H121zM141.753 17.107c-.845.634-1.901.951-3.148.951-2.473 0-3.74-1.542-3.74-4.353V8.38H132.9V6.394h1.986V2.358h2.303v4.036h3.93V8.38h-3.93v5.367c0 1.458.592 2.177 1.753 2.177.613 0 1.29-.211 2.008-.634l.803 1.817zM150.842 14.804c.698-.74 1.036-1.648 1.036-2.726 0-1.057-.338-1.965-1.036-2.705-.697-.74-1.564-1.12-2.64-1.12-1.078 0-1.966.38-2.642 1.12-.677.74-1.014 1.648-1.014 2.726s.337 1.987 1.014 2.726c.676.74 1.564 1.099 2.641 1.099s1.944-.38 2.641-1.12zm.93-8.41h2.24v11.389h-2.24V16.22c-1.035 1.225-2.345 1.838-3.888 1.838-1.627 0-3-.57-4.078-1.732-1.078-1.163-1.606-2.6-1.606-4.311 0-1.712.528-3.107 1.606-4.226 1.077-1.12 2.451-1.67 4.078-1.67 1.543 0 2.853.613 3.888 1.86V6.394zM157.29 16.368c-1.12-1.12-1.69-2.536-1.69-4.269 0-1.754.57-3.17 1.711-4.29 1.141-1.119 2.6-1.69 4.395-1.69 2.283 0 4.332 1.162 5.24 3.044l-1.922 1.077c-.697-1.205-1.944-1.987-3.297-1.987-1.077 0-1.986.36-2.704 1.1-.719.739-1.078 1.648-1.078 2.746 0 1.078.36 1.966 1.057 2.705.697.74 1.584 1.099 2.64 1.099 1.354 0 2.726-.825 3.318-1.944l1.923 1.12c-.929 1.774-2.98 2.958-5.261 2.958-1.754 0-3.212-.55-4.332-1.67M176.853 17.107c-.845.634-1.901.951-3.148.951-2.472 0-3.74-1.542-3.74-4.353V8.38H168V6.394h1.986V2.358h2.303v4.036h3.93V8.38h-3.93v5.367c0 1.458.592 2.177 1.754 2.177.613 0 1.289-.211 2.007-.634l.803 1.817z"/>
        </g>
    </g>
</svg>
