<svg xmlns="http://www.w3.org/2000/svg" width="28" height="28" viewBox="0 0 28 28">
    <g fill="none" fill-rule="evenodd">
        <path fill="#FFF" d="M14 0C6.268 0 0 6.268 0 14c0 2.854.855 5.507 2.32 7.72L.869 27.145l5.427-1.454A13.934 13.934 0 0 0 14 28c7.732 0 14-6.268 14-14S21.732 0 14 0"/>
        <path fill="#6A3ECF" d="M22 13.852a7.676 7.676 0 0 1-.614 3.022A1.574 1.574 0 0 1 19.868 18c-.872 0-1.579-.694-1.579-1.55v-1.733c0-.855.707-1.55 1.579-1.55.27 0 .526.068.749.186-.261-3.36-3.128-6.016-6.617-6.016-3.491 0-6.36 2.66-6.617 6.023.225-.122.485-.192.76-.192.873 0 1.58.694 1.58 1.55v1.732c0 .856-.707 1.55-1.58 1.55-.71 0-1.31-.46-1.508-1.093l-.006.002A7.68 7.68 0 0 1 6 13.852C6 9.522 9.589 6 14 6s8 3.523 8 7.852zM15.915 19H18v1h-2.085a1.5 1.5 0 1 1 0-1z"/>
    </g>
</svg>
