<svg xmlns="http://www.w3.org/2000/svg" width="20" height="20" viewBox="0 0 20 20">
    <path fill="#222" fill-rule="evenodd" d="M5.11 13.477A5.968 5.968 0 0 1 4.082 11H2V9h2.083a5.968 5.968 0 0 1 1.026-2.477L3.636 5.05 5.05 3.636l1.473 1.473A5.968 5.968 0 0 1 9 4.083V2h2v2.083a5.968 5.968 0 0 1 2.477 1.026l1.473-1.473 1.414 1.414-1.473 1.473A5.968 5.968 0 0 1 15.917 9H18v2h-2.083a5.968 5.968 0 0 1-1.026 2.477l1.473 1.473-1.414 1.414-1.473-1.473A5.968 5.968 0 0 1 11 15.917V18H9v-2.083a5.968 5.968 0 0 1-2.477-1.026L5.05 16.364 3.636 14.95l1.473-1.473zM10 13.5a3.5 3.5 0 1 0 0-7 3.5 3.5 0 0 0 0 7z"/>
</svg>
